HIERARCHY
ROOT root
{
	OFFSET 0.000000 0.000000 0.000000
	CHANNELS 6 Xposition Yposition Zposition Zrotation Yrotation Xrotation
	JOINT lhip
	{
		OFFSET 0.058581 -0.082280 -0.017664
		CHANNELS 3 Zrotation Yrotation Xrotation
		JOINT lknee
		{
			OFFSET 0.043451 -0.386469 0.008037
			CHANNELS 3 Zrotation Yrotation Xrotation
			JOINT lankle
			{
				OFFSET -0.014790 -0.426874 -0.037428
				CHANNELS 3 Zrotation Yrotation Xrotation
				JOINT ltoe
				{
					OFFSET 0.041054 -0.060286 0.122042
					CHANNELS 3 Zrotation Yrotation Xrotation
					End Site
					{
						OFFSET 0.000000 0.000000 0.000000
					}
				}
			}
		}
	}
	JOINT rhip
	{
		OFFSET -0.060310 -0.090513 -0.013543
		CHANNELS 3 Zrotation Yrotation Xrotation
		JOINT rknee
		{
			OFFSET -0.043257 -0.383688 -0.004843
			CHANNELS 3 Zrotation Yrotation Xrotation
			JOINT rankle
			{
				OFFSET 0.019056 -0.420046 -0.034562
				CHANNELS 3 Zrotation Yrotation Xrotation
				JOINT rtoe
				{
					OFFSET -0.034840 -0.062106 0.130323
					CHANNELS 3 Zrotation Yrotation Xrotation
					End Site
					{
						OFFSET 0.000000 0.000000 0.000000
					}
				}
			}
		}
	}
	JOINT lowerback
	{
		OFFSET 0.004439 0.124404 -0.038385
		CHANNELS 3 Zrotation Yrotation Xrotation
		JOINT upperback
		{
			OFFSET 0.004488 0.137956 0.026820
			CHANNELS 3 Zrotation Yrotation Xrotation
			JOINT chest
			{
				OFFSET -0.002265 0.056032 0.002855
				CHANNELS 3 Zrotation Yrotation Xrotation
				JOINT lowerneck
				{
					OFFSET -0.013390 0.211636 -0.033468
					CHANNELS 3 Zrotation Yrotation Xrotation
					JOINT upperneck
					{
						OFFSET 0.010113 0.088937 0.050410
						CHANNELS 3 Zrotation Yrotation Xrotation
						End Site
						{
							OFFSET 0.000000 0.000000 0.000000
						}
					}
				}
				JOINT lclavicle
				{
					OFFSET 0.071702 0.114000 -0.018898
					CHANNELS 3 Zrotation Yrotation Xrotation
					JOINT lshoulder
					{
						OFFSET 0.122921 0.045205 -0.019046
						CHANNELS 3 Zrotation Yrotation Xrotation
						JOINT lelbow
						{
							OFFSET 0.255332 -0.015649 -0.022946
							CHANNELS 3 Zrotation Yrotation Xrotation
							JOINT lwrist
							{
								OFFSET 0.265709 0.012698 -0.007375
								CHANNELS 3 Zrotation Yrotation Xrotation
								End Site
								{
									OFFSET 0.000000 0.000000 0.000000
								}
							}
						}
					}
				}
				JOINT rclavicle
				{
					OFFSET -0.082954 0.112472 -0.023707
					CHANNELS 3 Zrotation Yrotation Xrotation
					JOINT rshoulder
					{
						OFFSET -0.113228 0.046853 -0.008472
						CHANNELS 3 Zrotation Yrotation Xrotation
						JOINT relbow
						{
							OFFSET -0.260127 -0.014369 -0.031269
							CHANNELS 3 Zrotation Yrotation Xrotation
							JOINT rwrist
							{
								OFFSET -0.269108 0.006794 -0.006027
								CHANNELS 3 Zrotation Yrotation Xrotation
								End Site
								{
									OFFSET 0.000000 0.000000 0.000000
								}
							}
						}
					}
				}
			}
		}
	}
}
MOTION
Frames: 6
Frame Time: 0.033333
1.302004 0.703294 0.985530 -87.158280 0.013307 82.667842 -1.381508 -3.188932 2.738532 -1.058584 -13.050897 8.002911 3.844244 11.232322 -14.886170 0.000000 -0.000000 0.000000 0.976222 -4.227207 1.703966 -1.954885 -1.438261 11.087944 0.886740 -10.845055 -13.257703 0.000000 -0.000000 0.000000 -0.244511 5.231216 8.798179 -1.445914 -0.390221 5.117237 -0.171858 1.199525 -2.555205 3.637786 24.788043 -5.826276 5.420559 25.322518 5.237215 -27.708154 -5.721690 0.105648 -51.210225 -3.882406 11.289813 2.077261 -20.182347 6.554225 -6.723635 -3.002186 3.539133 23.608046 5.225497 5.183810 54.663439 1.416517 15.149444 -8.610089 21.739167 4.182109 5.009146 2.535345 6.913966 
1.303466 0.704135 0.985505 -87.818424 -0.042253 82.924395 -1.399823 -3.181237 2.144872 -1.079394 -12.561417 8.544478 3.959248 11.497261 -15.050492 0.000000 -0.000000 0.000000 1.091179 -3.727379 1.959959 -1.958476 -0.460974 9.779917 0.849662 -11.021069 -13.212041 0.000000 -0.000000 0.000000 -0.537588 5.399578 8.611980 -1.415557 -0.553250 5.084061 -0.435171 1.220849 -2.819256 3.856109 21.176327 -6.045436 6.360727 21.507211 6.987356 -27.357834 -5.430593 -0.146294 -50.489827 -4.684913 11.445872 2.526460 -19.617064 5.096915 -6.531448 -2.490206 3.835293 24.164444 5.251513 4.709614 55.148427 1.198166 15.593687 -9.082924 21.266217 4.133163 4.250843 2.377915 7.844454 
1.304613 0.705351 0.985844 -88.593554 0.142121 83.089343 -1.157055 -3.200376 1.628480 -0.998432 -11.872003 9.164567 3.710997 11.721755 -15.311773 0.000000 -0.000000 0.000000 1.623088 -3.282597 1.851888 -2.134861 0.189051 9.315416 0.739630 -11.299223 -13.059162 0.000000 -0.000000 0.000000 -0.836425 5.301719 8.249263 -1.136314 -0.755051 5.409315 -0.600200 1.289977 -3.099789 3.829704 16.697202 -5.886537 6.604009 16.486312 7.719500 -27.086493 -5.140221 -0.266788 -50.069728 -5.118098 11.645370 3.162414 -19.340010 3.745143 -5.507595 -2.311214 4.304190 24.741938 5.524786 4.283819 55.229387 1.184175 15.776137 -8.615015 21.792912 4.485378 3.581618 2.757580 8.363305 
1.305756 0.707079 0.986431 -89.685511 0.230505 83.180497 -0.998929 -2.793159 1.595733 -0.695903 -11.214209 9.138008 3.592728 11.883155 -15.561249 0.000000 -0.000000 0.000000 2.030978 -2.906810 1.501513 -2.425291 0.235783 9.536027 0.761781 -10.822925 -13.234753 0.000000 -0.000000 0.000000 -1.304129 5.106085 7.798331 -0.809293 -0.947260 5.754048 -0.894363 1.353000 -2.927110 3.319104 10.660328 -5.203135 6.835422 9.463755 7.476469 -26.348491 -4.371273 -0.830669 -50.351039 -5.349242 11.928946 3.768108 -19.895979 2.142686 -5.535491 -2.160013 4.391553 25.290951 5.724957 3.158219 55.621577 0.853410 16.121914 -8.081894 24.332385 4.699106 4.113136 3.480050 8.069107 
1.306322 0.707996 0.986430 -90.293084 0.172565 83.185548 -1.004723 -2.603606 1.641470 -0.580941 -10.727406 9.200268 3.449357 11.987749 -15.794131 0.000000 -0.000000 0.000000 2.079333 -2.620334 1.293281 -2.484903 0.238700 9.823987 0.742374 -10.678915 -13.519100 0.000000 -0.000000 0.000000 -1.778851 4.952019 7.642377 -0.546023 -1.043529 5.605082 -0.929613 1.179906 -2.318301 3.093572 6.859510 -4.532799 6.681224 5.354160 6.623090 -25.908742 -3.737322 -1.310291 -50.787668 -5.406102 12.042431 3.884279 -20.438171 1.100128 -6.131722 -2.486037 4.171374 25.351949 5.706532 2.159858 56.209418 0.623843 16.363442 -7.952686 26.025127 4.822563 4.545280 4.481993 8.037925 
1.309008 0.709908 0.985629 -91.446187 0.165930 83.240083 -0.823115 -2.232423 0.931279 -0.696019 -9.866688 10.361494 3.572189 12.323060 -16.160064 0.000000 -0.000000 0.000000 2.276778 -2.084723 0.138854 -2.461023 0.532308 11.440538 0.618607 -10.745176 -14.009698 0.000000 -0.000000 0.000000 -2.045178 4.827573 8.249833 -0.356556 -1.131580 4.852957 -1.197783 1.052253 -1.826571 2.549564 1.693494 -4.013908 6.799357 0.017749 5.701550 -25.407497 -2.893796 -1.753202 -51.369060 -5.284239 12.623579 3.677206 -21.607810 -0.403049 -6.217997 -2.434201 2.720850 25.469877 5.649491 0.613652 57.253507 0.297068 16.768626 -7.896030 28.775151 3.494780 5.384579 5.104539 5.165227 
